<svg xmlns="http://www.w3.org/2000/svg" viewBox="0 0 185.53 167.42"><defs><style>.cls-1chiab{isolation:isolate;}.cls-2chiab{fill:#0be8e6;}.cls-3chiab{fill:#ff0040;}.cls-3chiab,.cls-4chiab{mix-blend-mode:multiply;}.cls-4chiab{fill:#ffaf15;}.cls-5chiab{fill:#0b0038;}</style></defs><g class="cls-1chiab"><g data-name="Layer 1"><rect class="cls-2chiab" y="117.1" width="185.53" height="50.33" rx="25.16"/><rect class="cls-3chiab" x="-33.8" y="58.55" width="185.53" height="50.33" rx="25.16" transform="matrix(0.5, -0.87, 0.87, 0.5, -43.01, 92.92)"/><rect class="cls-4chiab" x="33.8" y="58.55" width="185.53" height="50.33" rx="25.16" transform="matrix(-0.5, -0.87, 0.87, -0.5, 117.34, 235.17)"/><path class="cls-5chiab" d="M25.16,117.1A25.15,25.15,0,0,0,3.35,129.73c-.2.35-.4.7-.58,1.06l0,.05c-.18.36-.36.73-.52,1.09l0,.07c-.16.36-.31.71-.45,1.07,0,0,0,.08-.05.13-.13.33-.25.66-.36,1l-.08.21c-.09.31-.19.61-.27.92,0,.1-.07.21-.1.32-.07.27-.14.54-.2.81s-.07.3-.1.45-.1.46-.14.7-.07.37-.1.56-.07.41-.09.61l-.09.66c0,.18,0,.36,0,.55l-.06.72c0,.17,0,.35,0,.52s0,.48,0,.73,0,.38,0,.57,0,.41,0,.61,0,.48,0,.72,0,.26,0,.39c0,.31.05.62.08.93,0,0,0,.07,0,.11a25.31,25.31,0,0,0,4.18,11.15.76.76,0,0,1,.08.11c.2.29.4.57.61.84s.2.27.31.4l.43.54.41.48.39.43c.14.16.28.31.43.46l.42.43.39.37.53.5.3.26c.22.19.45.39.69.58l.17.14c.29.22.58.45.88.66l0,0a24.48,24.48,0,0,0,2.14,1.38h0a25.24,25.24,0,0,0,4.64,2.09h0c.37.13.74.24,1.12.34l.13,0,1,.25.29.07.83.16.45.08.71.11.57.07.61.06.67.05.56,0,.7,0A25.16,25.16,0,0,0,47,154.84L68.75,117.1Z"/></g></g></svg>