<svg viewBox="0 0 200.46 162.76" xmlns="http://www.w3.org/2000/svg"><path d="m133 27.92h67.42a0 0 0 0 1 0 0v67.42a67.42 67.42 0 0 1 -67.42 67.42 67.42 67.42 0 0 1 -67.37-67.42 67.42 67.42 0 0 1 67.37-67.42z" fill="#ff0040" transform="matrix(.70710678 -.70710678 .70710678 .70710678 -28.45 122)"/><path d="m67.42 27.92h67.42a0 0 0 0 1 0 0v67.42a67.42 67.42 0 0 1 -67.42 67.42 67.42 67.42 0 0 1 -67.42-67.42 67.42 67.42 0 0 1 67.42-67.42z" fill="#0be8e6" transform="matrix(.70710678 -.70710678 .70710678 .70710678 -47.67 75.59)"/><path d="m115.09 47.66-14.86-14.86-14.86 14.86a67.41 67.41 0 0 0 0 95.34 67.18 67.18 0 0 0 14.86 11.21 67.42 67.42 0 0 0 14.86-11.21 67.43 67.43 0 0 0 0-95.34z" fill="#0b0038"/></svg>