<svg width="21" height="22" viewBox="0 0 21 22" fill="none" xmlns="http://www.w3.org/2000/svg">
<path fill-rule="evenodd" clip-rule="evenodd" d="M10.4994 0L15.613 6.81818H11.6245V15.3409C11.6245 15.9622 11.1208 16.4659 10.4995 16.4659C9.87819 16.4659 9.37451 15.9622 9.37451 15.3409V6.81818H5.38574L10.4994 0ZM2.25 16.1932C2.25 15.5719 1.74632 15.0682 1.125 15.0682C0.50368 15.0682 0 15.5719 0 16.1932V18.9546C0 20.4043 1.17525 21.5796 2.625 21.5796H18.375C19.8247 21.5796 21 20.4043 21 18.9546V16.1932C21 15.5719 20.4963 15.0682 19.875 15.0682C19.2537 15.0682 18.75 15.5719 18.75 16.1932V18.9546C18.75 19.1617 18.5821 19.3296 18.375 19.3296H2.625C2.41789 19.3296 2.25 19.1617 2.25 18.9546V16.1932Z" fill="#6A7186"/>
</svg>
