<svg viewBox="0 0 511.64 395.5" xmlns="http://www.w3.org/2000/svg"><path d="m354.59 157.05-116.14-116.14a139.68 139.68 0 0 0 -197.54 0 139.68 139.68 0 0 0 0 197.54l116.14 116.14a139.68 139.68 0 0 0 197.54 0 139.68 139.68 0 0 0 0-197.54zm-73.53 124a34.9 34.9 0 1 1 0-49.36 34.9 34.9 0 0 1 0 49.37z" fill="#ff0040"/><path d="m470.73 40.91a139.68 139.68 0 0 0 -197.54 0l-116.14 116.14a139.68 139.68 0 0 0 0 197.54 139.68 139.68 0 0 0 197.54 0l116.14-116.14a139.68 139.68 0 0 0 0-197.54zm-189.67 240.15a34.9 34.9 0 1 1 0-49.36 34.9 34.9 0 0 1 0 49.36z" fill="#0be8e6"/><path d="m354.59 157-98.77-98.75-98.77 98.75a139.68 139.68 0 0 0 0 197.54 139.68 139.68 0 0 0 197.54 0 139.68 139.68 0 0 0 0-197.54zm-73.53 124a34.9 34.9 0 1 1 0-49.36 34.9 34.9 0 0 1 0 49.36z" fill="#0b0038"/></svg>