<svg height="44" viewBox="0 0 57 44" width="57" xmlns="http://www.w3.org/2000/svg" xmlns:xlink="http://www.w3.org/1999/xlink"><mask id="a" fill="#fff"><path d="m0 .10872509h56.0932053v43.87683071h-56.0932053z" fill="#fff" fill-rule="evenodd"/></mask><g fill="#fff" fill-rule="evenodd" transform="translate(0 .083361)"><path d="m49.8426891 25.5187131-6.4217047 6.4217047c1.2717407-5.202401-.120048-10.9284034-4.1757503-14.9839136l-9.5796399-9.57983193 1.0176231-1.01743097c2.6412485-2.64105643 6.1103481-3.96177671 9.5798319-3.96177671 3.4690997 0 6.9383914 1.32072028 9.5796399 3.96177671 5.2823049 5.2823049 5.2823049 13.8771669 0 19.1594718zm-23.8357743 16.0230492c-2.7614886-.4171909-5.4182954-1.684898-7.5401681-3.8065786l-.004994-.0051861c-5.2773109-5.2826891-5.2757743-13.8739016.0046098-19.1544778l9.5800241-9.57983192 9.5798319 9.57983192c5.2821128 5.2823049 5.2821128 13.8771669 0 19.1596639-3.1604322 3.1602401-7.5063626 4.4277551-11.6193037 3.8065786zm-19.75644661-16.0230492c-5.28230492-5.2823049-5.28230492-13.8771669 0-19.1594718 2.64105642-2.64105643 6.11034811-3.96177671 9.57963981-3.96177671 3.4692918 0 6.9385835 1.32072028 9.579832 3.96177671l1.017623 1.01743097-9.580024 9.57983193c-2.9914045 2.9912125-4.6390396 6.9685474-4.6390396 11.1988475.0001921 1.2884514.1551981 2.5528932.4521489 3.7737335zm45.21142861-20.77867949c-6.1750781-6.17488595-16.2228092-6.1752701-22.3978872 0l-1.017623 1.01762305-1.017431-1.01762305c-6.174886-6.17488595-16.2226171-6.1752701-22.3976951 0-6.17507803 6.17507799-6.17507803 16.22280909 0 22.39769509l12.2164706 12.2164706c.9648019.9648019 2.0242977 1.7790156 3.1485234 2.4422569 2.4737575 1.4593997 5.2621369 2.1890996 8.0501321 2.1890996h.000192c3.2952701 0 6.5905402-1.0191596 9.3662425-3.057479.6407683-.4702041 1.2534934-.994958 1.832413-1.5738775l12.2166627-12.2164706c6.175078-6.174886 6.175078-16.2226171 0-22.39769509z" mask="url(#a)"/><path d="m29.8918415 30.0006339c-.4773109.4771188-1.1117407.7398799-1.7865066.7398799s-1.3091956-.2627611-1.7865066-.7398799c-.9847779-.98497-.9847779-2.5878512 0-3.5730133.477311-.4769267 1.1117407-.7398799 1.7865066-.7398799s1.3091957.2629532 1.7865066.7398799c.98497.9851621.98497 2.5880433 0 3.5730133m-1.7865066-6.6026411c-1.2865306 0-2.4958463.5009364-3.4055222 1.4106122-1.8779351 1.8777431-1.8779351 4.9333014 0 6.8110445.9096759.9098679 2.1189916 1.4108043 3.4055222 1.4108043s2.4958464-.5009364 3.4055222-1.4108043c1.8779352-1.8777431 1.8779352-4.9333014 0-6.8110445-.9096758-.9096758-2.1189916-1.4106122-3.4055222-1.4106122"/></g></svg>